<svg width="28" height="24" viewBox="0 0 28 24" fill="none" xmlns="http://www.w3.org/2000/svg">
<path d="M9.21875 16.0001H23.6158C23.9723 16.0001 24.285 15.7634 24.3815 15.4197L27.5692 4.21955C27.6377 3.97809 27.5908 3.71872 27.4399 3.5181C27.2889 3.3181 27.054 3.19997 26.8033 3.19997H7.37909L6.80945 0.626661C6.72852 0.260206 6.40479 0 6.03126 0H1.1969C0.756542 0 0.400024 0.357914 0.400024 0.799993C0.400024 1.24228 0.756542 1.59999 1.1969 1.59999H5.39168L8.26935 14.5999C7.42267 14.9695 6.82813 15.8155 6.82813 16.8001C6.82813 18.1234 7.90059 19.2 9.21875 19.2H23.6158C24.0564 19.2 24.4127 18.8423 24.4127 18.4001C24.4127 17.958 24.0564 17.6001 23.6158 17.6001H9.21875C8.77985 17.6001 8.42188 17.2415 8.42188 16.8001C8.42188 16.3586 8.77985 16.0001 9.21875 16.0001Z" fill="#2E3451"/>
<path d="M8.42188 21.6C8.42188 22.9236 9.49433 24 10.8127 24C12.1309 24 13.2033 22.9236 13.2033 21.6C13.2033 20.2767 12.1309 19.2 10.8127 19.2C9.49433 19.2 8.42188 20.2767 8.42188 21.6Z" fill="#2E3451"/>
<path d="M19.6313 21.6C19.6313 22.9236 20.7038 24 22.022 24C23.3403 24 24.4126 22.9236 24.4126 21.6C24.4126 20.2767 23.3403 19.2 22.022 19.2C20.7038 19.2 19.6313 20.2767 19.6313 21.6Z" fill="#2E3451"/>
</svg>
