<svg width="26" height="26" viewBox="0 0 26 26" fill="none" xmlns="http://www.w3.org/2000/svg">
<path d="M3.5 17.7714H1.5C1.12465 17.7714 0.8 18.0611 0.8 18.4429V24.5286C0.8 24.9103 1.12465 25.2 1.5 25.2H3.5C3.87535 25.2 4.2 24.9103 4.2 24.5286V18.4429C4.2 18.0611 3.87535 17.7714 3.5 17.7714Z" fill="#2E3451" stroke="#2E3451" stroke-width="0.4" stroke-linecap="round" stroke-linejoin="round"/>
<path d="M17.5 12.1143H15.5C15.1247 12.1143 14.8 12.404 14.8 12.7857V24.5286C14.8 24.9103 15.1247 25.2 15.5 25.2H17.5C17.8753 25.2 18.2 24.9103 18.2 24.5286V12.7857C18.2 12.404 17.8753 12.1143 17.5 12.1143Z" fill="#2E3451" stroke="#2E3451" stroke-width="0.4" stroke-linecap="round" stroke-linejoin="round"/>
<path d="M24.5 5.51428H22.5C22.1247 5.51428 21.8 5.80396 21.8 6.18571V24.5286C21.8 24.9103 22.1247 25.2 22.5 25.2H24.5C24.8753 25.2 25.2 24.9103 25.2 24.5286V6.18571C25.2 5.80396 24.8753 5.51428 24.5 5.51428Z" fill="#2E3451" stroke="#2E3451" stroke-width="0.4" stroke-linecap="round" stroke-linejoin="round"/>
<path d="M10.5 0.8H8.5C8.12465 0.8 7.8 1.08968 7.8 1.47143V24.5286C7.8 24.9103 8.12465 25.2 8.5 25.2H10.5C10.8753 25.2 11.2 24.9103 11.2 24.5286V1.47143C11.2 1.08968 10.8753 0.8 10.5 0.8Z" fill="#2E3451" stroke="#2E3451" stroke-width="0.4" stroke-linecap="round" stroke-linejoin="round"/>
</svg>
