<svg width="312" height="70" viewBox="0 0 312 70" fill="none" xmlns="http://www.w3.org/2000/svg">
<g clip-path="url(#clip0)">
<path fill-rule="evenodd" clip-rule="evenodd" d="M18.7374 59.999L18.7815 59.9948L13.6656 59.0912H0V63.8051H40.2178L18.7374 59.9991V59.999Z" fill="#292F4B"/>
<path fill-rule="evenodd" clip-rule="evenodd" d="M13.6656 65.3906H0V70.0006H39.7892L13.6656 65.3906Z" fill="#292F4B"/>
<path fill-rule="evenodd" clip-rule="evenodd" d="M74.7358 69.9226L49.1428 65.387L22.7314 65.3906L48.8828 70.0007H74.7365L74.7359 69.9226L74.7358 69.9226Z" fill="#292F4B"/>
<path fill-rule="evenodd" clip-rule="evenodd" d="M75.7346 57.3731L50.051 52.8427L24.253 52.8463V52.8427H23.6785L75.7433 62.0671L75.7346 57.3731Z" fill="#292F4B"/>
<path fill-rule="evenodd" clip-rule="evenodd" d="M13.6111 52.8427H0V57.5603H40.3676L13.6111 52.8427Z" fill="#292F4B"/>
<path fill-rule="evenodd" clip-rule="evenodd" d="M23.4688 59.0911L56.0004 64.8306L75.7432 68.3145L75.7357 63.6235L50.028 59.0878L23.4688 59.0909V59.0911Z" fill="#292F4B"/>
<path fill-rule="evenodd" clip-rule="evenodd" d="M75.7271 52.8463H58.881L75.7343 55.8201L75.7271 52.8463Z" fill="#292F4B"/>
<path fill-rule="evenodd" clip-rule="evenodd" d="M68.084 49.1131H49.3419C49.6263 48.5915 49.9078 48.0688 50.1835 47.5321L50.7181 46.4414L52.2003 43.1048C52.5036 42.352 52.8068 41.5953 53.0801 40.8359C53.2239 40.453 53.3565 40.0648 53.4873 39.6779L53.5466 39.507C53.6598 39.1755 53.7738 38.8442 53.8751 38.5142L54.5781 36.1728C54.6529 35.9116 54.7203 35.6465 54.7875 35.3829L54.8895 34.9866C54.9967 34.5865 55.0947 34.1835 55.1855 33.7809L55.2847 33.3487C55.3446 33.093 55.4046 32.8372 55.4579 32.5762L55.6932 31.3795C55.7485 31.1119 55.7925 30.8401 55.8365 30.5698L55.9132 30.1114C55.9797 29.7163 56.0464 29.3201 56.0964 28.9265L56.3911 26.4751C56.4363 26.0576 56.4683 25.6402 56.4929 25.2227L56.5963 23.215C56.6164 22.6361 56.5926 11.0598 56.5926 11.0598C64.86 16.9714 70.2494 26.612 70.2494 37.51C70.2494 41.601 69.4698 45.5059 68.0841 49.1131H68.084ZM47.977 46.6335C47.7317 47.3744 47.4804 48.1165 47.2065 48.8586C47.1762 48.9441 47.1429 49.0286 47.1104 49.1131H17.7632C18.0003 48.5059 18.2443 47.902 18.5148 47.3121C19.6882 44.7059 21.2222 42.2059 23.0637 39.8684C23.2146 40.3094 23.3826 40.7523 23.6006 41.1836C23.8817 41.7616 24.2135 42.326 24.592 42.8592C24.9736 43.3895 25.3852 43.8998 25.8428 44.3539C26.291 44.8158 26.7733 45.2307 27.2697 45.5898C27.7609 45.9562 28.2717 46.2603 28.7701 46.5157C29.2685 46.7717 29.7623 46.9664 30.2241 47.118C30.4539 47.1958 30.6821 47.25 30.8941 47.3082C31.1094 47.3582 31.3155 47.3969 31.5076 47.4333C31.8959 47.4936 32.2344 47.5257 32.5142 47.5332C32.7911 47.5551 33.0123 47.5325 33.16 47.5295C33.3078 47.5211 33.3865 47.5164 33.3865 47.5164C33.3865 47.5164 33.312 47.4893 33.1727 47.4388C33.0332 47.391 32.8302 47.3223 32.5784 47.2223C32.3247 47.1314 32.0267 46.9937 31.6901 46.8441C31.3562 46.6841 30.9866 46.4993 30.6004 46.2727C30.4086 46.1557 30.2057 46.0453 30.0083 45.9075C29.8058 45.78 29.6024 45.6397 29.3983 45.49C28.9882 45.1929 28.5718 44.8621 28.1669 44.4924C27.9615 44.3116 27.7642 44.1146 27.5616 43.9202C27.3701 43.7137 27.1663 43.5158 26.9796 43.2981C26.5974 42.872 26.234 42.4171 25.9018 41.9407C25.5579 41.4723 25.2588 40.9734 24.9787 40.475C24.6975 39.9762 24.4615 39.4638 24.2456 38.9612C24.193 38.835 24.1609 38.715 24.1129 38.5898C25.7403 36.6682 27.5946 34.8202 29.67 33.0902C31.9387 31.1791 34.5033 29.3546 37.295 27.6635C38.5926 26.8658 50.758 20.7076 51.2452 20.5845L51.392 21.6964C51.4667 22.4449 51.5337 23.1951 51.5744 23.9253L51.5898 25.0769C51.5978 25.4478 51.5977 25.8216 51.5849 26.2045L51.515 28.4971C51.503 28.8457 51.4763 29.1927 51.4438 29.6208L51.4124 30.0397C51.3956 30.2794 51.3783 30.5192 51.3517 30.7619L51.3016 31.2521C51.241 31.851 51.1811 32.4515 51.0984 33.0623C51.0551 33.4387 51.0044 33.8137 50.9452 34.1901L50.8806 34.6182C50.8459 34.8553 50.8113 35.0937 50.7692 35.331L50.3534 37.6222C50.2993 37.9206 50.2354 38.216 50.172 38.5115L50.1201 38.7525C50.04 39.1277 49.9595 39.5027 49.8648 39.887C49.6923 40.6422 49.5042 41.3964 49.3104 42.1425L47.9768 46.6333L47.977 46.6335ZM11.0504 49.1131H6.89931C5.5136 45.5059 4.73385 41.601 4.73385 37.51C4.73385 19.5232 19.3998 4.94207 37.4916 4.94207C44.1314 4.94207 50.3059 6.91219 55.4672 10.288L54.974 13.4939L52.7027 14.2581C51.1253 14.7884 49.5418 15.3382 47.9703 15.9305C46.3648 16.531 44.782 17.1604 43.2672 17.7991C41.841 18.3993 40.3254 19.0951 38.6332 19.926C37.0411 20.7118 35.5175 21.5216 34.1032 22.334C30.9711 24.1533 28.0986 26.1239 25.564 28.1924C22.7475 30.51 20.2577 33.0173 18.1603 35.6453C15.9143 38.4865 14.0622 41.541 12.6541 44.7267C12.034 46.1455 11.5061 47.6211 11.0504 49.1131ZM74.9978 0.224928H0V50.0747H74.9833L74.9978 0.224928Z" fill="#FB8C00"/>
<path fill-rule="evenodd" clip-rule="evenodd" d="M41.7469 31.7703C40.2193 30.5555 37.9925 30.8045 36.7732 32.3267C35.554 33.8486 35.8037 36.0675 37.3314 37.2824C38.859 38.4978 41.0859 38.2485 42.305 36.7266C43.5246 35.2042 43.2745 32.9856 41.7469 31.7703Z" fill="#FB8C00"/>
</g>
<path d="M97.2292 57.5351V68.6036H95.9972V58.7632H94.5893L94.2213 67.0725C94.2 67.5828 94.088 67.9656 93.8853 68.2208C93.6933 68.476 93.3413 68.6036 92.8293 68.6036H92.1573V67.3755H92.6693C92.7973 67.3755 92.8773 67.3596 92.9093 67.3277C92.952 67.2851 92.9787 67.2001 92.9893 67.0725L93.4053 57.5351H97.2292Z" fill="#2E3451"/>
<path d="M105.799 67.1841C105.724 67.5882 105.548 67.9284 105.271 68.2048C105.004 68.4707 104.615 68.6036 104.103 68.6036H103.239V67.3755H104.103C104.241 67.3755 104.348 67.3436 104.423 67.2798C104.497 67.216 104.545 67.1416 104.567 67.0565L104.935 65.0789H103.831L102.103 57.5351H103.367L104.711 63.8508H105.143L106.295 57.5351H107.543L105.799 67.1841Z" fill="#2E3451"/>
<path d="M116.495 57.5351V68.6036H115.247V65.0948H113.999C113.764 65.0948 113.54 65.0629 113.327 64.9991C113.124 64.9353 112.943 64.8397 112.783 64.7121C112.633 64.5738 112.511 64.3984 112.415 64.1858C112.329 63.9625 112.287 63.6967 112.287 63.3883V57.5351H113.519V63.3883C113.519 63.5691 113.567 63.6967 113.663 63.7711C113.759 63.8349 113.871 63.8668 113.999 63.8668H115.247V57.5351H116.495Z" fill="#2E3451"/>
<path d="M127.795 67.3755V57.5351H129.027V68.6036H121.94V57.5351H123.172V67.3755H124.868V57.5351H126.099V67.3755H127.795Z" fill="#2E3451"/>
<path d="M137.523 68.6036V61.5702L135.699 63.4043V68.6036H134.467V57.5351H135.699V61.921L137.523 60.0231V57.5351H138.755V68.6036H137.523Z" fill="#2E3451"/>
<path d="M147.51 55.5575V56.3709H145.174V55.5575H147.51ZM147.254 68.6036V61.5702L145.43 63.4043V68.6036H144.198V57.5351H145.43V61.921L147.254 60.0231V57.5351H148.486V68.6036H147.254Z" fill="#2E3451"/>
<path d="M162.31 57.5351C162.619 57.5351 162.881 57.583 163.094 57.6787C163.318 57.7637 163.494 57.886 163.622 58.0455C163.761 58.1943 163.862 58.3751 163.926 58.5877C163.99 58.7898 164.022 59.0077 164.022 59.2416V60.0231C164.022 60.5229 163.931 60.9003 163.75 61.1555C163.579 61.4 163.35 61.5702 163.062 61.6659C163.35 61.7722 163.579 61.9529 163.75 62.2081C163.931 62.4527 164.022 62.8248 164.022 63.3245V66.897C164.022 67.2054 163.974 67.4712 163.878 67.6945C163.793 67.9071 163.67 68.0826 163.51 68.2208C163.361 68.3484 163.179 68.4441 162.966 68.5079C162.763 68.5717 162.545 68.6036 162.31 68.6036H159.926V57.5351H162.31ZM162.79 63.165C162.79 62.8886 162.71 62.6759 162.55 62.5271C162.401 62.3676 162.214 62.2879 161.99 62.2879H161.158V67.3755H162.31C162.449 67.3755 162.561 67.3436 162.646 67.2798C162.742 67.2054 162.79 67.0778 162.79 66.897V63.165ZM162.79 59.2416C162.79 59.1141 162.753 59.0024 162.678 58.9067C162.614 58.811 162.491 58.7632 162.31 58.7632H161.158V61.0598H161.99C162.214 61.0598 162.401 60.9854 162.55 60.8365C162.71 60.677 162.79 60.4591 162.79 60.1826V59.2416Z" fill="#2E3451"/>
<path d="M171.713 61.0438C172.022 61.0438 172.284 61.0917 172.497 61.1874C172.721 61.2724 172.897 61.3947 173.025 61.5542C173.164 61.7031 173.265 61.8838 173.329 62.0965C173.393 62.2985 173.425 62.5165 173.425 62.7504V66.897C173.425 67.2054 173.377 67.4712 173.281 67.6945C173.196 67.9071 173.073 68.0826 172.913 68.2208C172.764 68.3484 172.582 68.4441 172.369 68.5079C172.167 68.5717 171.948 68.6036 171.713 68.6036H169.313V57.5351H170.545V61.0438H171.713ZM172.193 62.7504C172.193 62.6121 172.156 62.5005 172.081 62.4154C172.017 62.3198 171.895 62.2719 171.713 62.2719H170.545V67.3755H171.713C171.852 67.3755 171.964 67.3436 172.049 67.2798C172.145 67.2054 172.193 67.0778 172.193 66.897V62.7504ZM176.129 57.5351V68.6036H174.897V57.5351H176.129Z" fill="#2E3451"/>
<path d="M183.991 61.0438C184.301 61.0438 184.562 61.0917 184.775 61.1874C184.999 61.2724 185.175 61.3947 185.303 61.5542C185.442 61.7031 185.543 61.8838 185.607 62.0965C185.671 62.2985 185.703 62.5165 185.703 62.7504V66.897C185.703 67.2054 185.655 67.4712 185.559 67.6945C185.474 67.9071 185.351 68.0826 185.191 68.2208C185.042 68.3484 184.861 68.4441 184.647 68.5079C184.445 68.5717 184.226 68.6036 183.991 68.6036H181.575V57.5351H185.383V58.7632H182.807V61.0438H183.991ZM184.471 62.7504C184.471 62.6228 184.434 62.5111 184.359 62.4154C184.295 62.3198 184.173 62.2719 183.991 62.2719H182.807V67.3755H183.991C184.13 67.3755 184.242 67.3436 184.327 67.2798C184.423 67.2054 184.471 67.0778 184.471 66.897V62.7504Z" fill="#2E3451"/>
<path d="M193.572 57.4394C193.881 57.4394 194.142 57.4873 194.356 57.583C194.58 57.668 194.756 57.7903 194.884 57.9498C195.022 58.0986 195.124 58.2794 195.188 58.4921C195.252 58.6941 195.284 58.912 195.284 59.1459V66.9927C195.284 67.2267 195.252 67.4499 195.188 67.6626C195.124 67.8646 195.022 68.0454 194.884 68.2048C194.756 68.3537 194.58 68.476 194.356 68.5717C194.142 68.6567 193.881 68.6993 193.572 68.6993H192.628C192.318 68.6993 192.052 68.6567 191.828 68.5717C191.614 68.476 191.438 68.3537 191.3 68.2048C191.172 68.0454 191.076 67.8646 191.012 67.6626C190.948 67.4499 190.916 67.2267 190.916 66.9927V59.1459C190.916 58.912 190.948 58.6941 191.012 58.4921C191.076 58.2794 191.172 58.0986 191.3 57.9498C191.438 57.7903 191.614 57.668 191.828 57.583C192.052 57.4873 192.318 57.4394 192.628 57.4394H193.572ZM193.572 67.4712C193.742 67.4712 193.865 67.4234 193.94 67.3277C194.014 67.232 194.052 67.1203 194.052 66.9927V59.1459C194.052 59.0184 194.014 58.9067 193.94 58.811C193.865 58.7153 193.742 58.6675 193.572 58.6675H192.628C192.446 58.6675 192.318 58.7153 192.244 58.811C192.18 58.9067 192.148 59.0184 192.148 59.1459V66.9927C192.148 67.1203 192.18 67.232 192.244 67.3277C192.318 67.4234 192.446 67.4712 192.628 67.4712H193.572Z" fill="#2E3451"/>
<path d="M204.696 63.3883C204.696 63.6967 204.648 63.9625 204.552 64.1858C204.466 64.3984 204.344 64.5738 204.184 64.7121C204.024 64.8397 203.837 64.9353 203.624 64.9991C203.421 65.0629 203.202 65.0948 202.968 65.0948H201.832V68.6036H200.6V57.5351H202.968C203.277 57.5351 203.538 57.583 203.752 57.6787C203.976 57.7637 204.157 57.886 204.296 58.0455C204.434 58.1943 204.536 58.3751 204.6 58.5877C204.664 58.7898 204.696 59.0077 204.696 59.2416V63.3883ZM203.448 59.2416C203.448 59.1141 203.41 59.0024 203.336 58.9067C203.272 58.811 203.149 58.7632 202.968 58.7632H201.832V63.8668H202.968C203.106 63.8668 203.218 63.8349 203.304 63.7711C203.4 63.6967 203.448 63.5691 203.448 63.3883V59.2416Z" fill="#2E3451"/>
<path d="M218.305 57.5351C218.615 57.5351 218.876 57.583 219.089 57.6787C219.313 57.7637 219.489 57.886 219.617 58.0455C219.756 58.1943 219.857 58.3751 219.921 58.5877C219.985 58.7898 220.017 59.0077 220.017 59.2416V60.0231C220.017 60.5229 219.926 60.9003 219.745 61.1555C219.575 61.4 219.345 61.5702 219.057 61.6659C219.345 61.7722 219.575 61.9529 219.745 62.2081C219.926 62.4527 220.017 62.8248 220.017 63.3245V66.897C220.017 67.2054 219.969 67.4712 219.873 67.6945C219.788 67.9071 219.665 68.0826 219.505 68.2208C219.356 68.3484 219.175 68.4441 218.961 68.5079C218.759 68.5717 218.54 68.6036 218.305 68.6036H215.921V57.5351H218.305ZM218.785 63.165C218.785 62.8886 218.705 62.6759 218.545 62.5271C218.396 62.3676 218.209 62.2879 217.985 62.2879H217.153V67.3755H218.305C218.444 67.3755 218.556 67.3436 218.641 67.2798C218.737 67.2054 218.785 67.0778 218.785 66.897V63.165ZM218.785 59.2416C218.785 59.1141 218.748 59.0024 218.673 58.9067C218.609 58.811 218.487 58.7632 218.305 58.7632H217.153V61.0598H217.985C218.209 61.0598 218.396 60.9854 218.545 60.8365C218.705 60.677 218.785 60.4591 218.785 60.1826V59.2416Z" fill="#2E3451"/>
<path d="M234.361 68.6036V61.5702L232.537 63.4043V68.6036H231.305V57.5351H232.537V61.921L234.361 60.0231V57.5351H235.593V68.6036H234.361Z" fill="#2E3451"/>
<path d="M244.172 61.0598V57.5351H245.404V68.6036H244.172V62.2879H242.268V68.6036H241.036V57.5351H242.268V61.0598H244.172Z" fill="#2E3451"/>
<path d="M250.217 57.5351H255.512V58.7632H253.48V68.6036H252.248V58.7632H250.217V57.5351Z" fill="#2E3451"/>
<path d="M260.436 57.5351H264.132V58.7632H261.668V61.0438H263.508V62.2879H261.668V67.3755H264.132V68.6036H260.436V57.5351Z" fill="#2E3451"/>
<path d="M273.387 63.3883C273.387 63.6967 273.34 63.9625 273.244 64.1858C273.158 64.3984 273.036 64.5738 272.876 64.7121C272.716 64.8397 272.529 64.9353 272.316 64.9991C272.113 65.0629 271.894 65.0948 271.66 65.0948H270.524V68.6036H269.292V57.5351H271.66C271.969 57.5351 272.23 57.583 272.444 57.6787C272.668 57.7637 272.849 57.886 272.988 58.0455C273.126 58.1943 273.227 58.3751 273.292 58.5877C273.355 58.7898 273.387 59.0077 273.387 59.2416V63.3883ZM272.14 59.2416C272.14 59.1141 272.102 59.0024 272.028 58.9067C271.964 58.811 271.841 58.7632 271.66 58.7632H270.524V63.8668H271.66C271.798 63.8668 271.91 63.8349 271.996 63.7711C272.092 63.6967 272.14 63.5691 272.14 63.3883V59.2416Z" fill="#2E3451"/>
<path d="M281.752 61.0598V57.5351H282.984V68.6036H281.752V62.2879H279.848V68.6036H278.616V57.5351H279.848V61.0598H281.752Z" fill="#2E3451"/>
<path d="M288.425 57.5351H292.121V58.7632H289.657V61.0438H291.497V62.2879H289.657V67.3755H292.121V68.6036H288.425V57.5351Z" fill="#2E3451"/>
<path d="M296.762 57.5351H302.058V58.7632H300.026V68.6036H298.794V58.7632H296.762V57.5351Z" fill="#2E3451"/>
<path d="M306.981 57.5351H310.677V58.7632H308.213V61.0438H310.053V62.2879H308.213V67.3755H310.677V68.6036H306.981V57.5351Z" fill="#2E3451"/>
<path d="M106.181 5.91699V10.8292H98.0532V50.1907H93.1253V10.8292H84.9976V5.91699H106.181Z" fill="#FB8C00"/>
<path d="M124.53 5.91699C125.767 5.91699 126.813 6.10837 127.666 6.49114C128.562 6.83138 129.266 7.32048 129.778 7.95842C130.332 8.55385 130.738 9.27686 130.994 10.1275C131.25 10.9355 131.378 11.8074 131.378 12.7431V15.869C131.378 17.8679 131.015 19.3777 130.29 20.3985C129.607 21.3766 128.69 22.0571 127.538 22.4399C128.69 22.8652 129.607 23.5882 130.29 24.6089C131.015 25.5871 131.378 27.0757 131.378 29.0746V43.3647C131.378 44.598 131.186 45.6613 130.802 46.5544C130.46 47.405 129.97 48.1068 129.33 48.6596C128.732 49.17 128.007 49.5528 127.154 49.808C126.343 50.0631 125.469 50.1907 124.53 50.1907H114.994V5.91699H124.53ZM126.45 28.4366C126.45 27.3308 126.13 26.4802 125.49 25.8848C124.893 25.2469 124.146 24.9279 123.25 24.9279H119.922V45.2785H124.53C125.085 45.2785 125.533 45.1509 125.874 44.8957C126.258 44.598 126.45 44.0877 126.45 43.3647V28.4366ZM126.45 12.7431C126.45 12.2327 126.301 11.7861 126.002 11.4034C125.746 11.0206 125.255 10.8292 124.53 10.8292H119.922V20.0157H123.25C124.146 20.0157 124.893 19.718 125.49 19.1226C126.13 18.4846 126.45 17.6127 126.45 16.507V12.7431Z" fill="#FB8C00"/>
<path d="M151.662 5.53422C152.899 5.53422 153.945 5.7256 154.798 6.10837C155.694 6.44861 156.398 6.93771 156.91 7.57566C157.465 8.17108 157.87 8.89409 158.126 9.74469C158.382 10.5528 158.51 11.4246 158.51 12.3603V43.7474C158.51 44.6831 158.382 45.5762 158.126 46.4268C157.87 47.2349 157.465 47.9579 156.91 48.5959C156.398 49.1913 155.694 49.6804 154.798 50.0631C153.945 50.4034 152.899 50.5735 151.662 50.5735H147.886C146.649 50.5735 145.582 50.4034 144.686 50.0631C143.833 49.6804 143.129 49.1913 142.574 48.5959C142.062 47.9579 141.678 47.2349 141.422 46.4268C141.166 45.5762 141.038 44.6831 141.038 43.7474V12.3603C141.038 11.4246 141.166 10.5528 141.422 9.74469C141.678 8.89409 142.062 8.17108 142.574 7.57566C143.129 6.93771 143.833 6.44861 144.686 6.10837C145.582 5.7256 146.649 5.53422 147.886 5.53422H151.662ZM151.662 45.6613C152.345 45.6613 152.835 45.4699 153.134 45.0871C153.433 44.7044 153.582 44.2578 153.582 43.7474V12.3603C153.582 11.8499 153.433 11.4034 153.134 11.0206C152.835 10.6378 152.345 10.4464 151.662 10.4464H147.886C147.161 10.4464 146.649 10.6378 146.35 11.0206C146.094 11.4034 145.966 11.8499 145.966 12.3603V43.7474C145.966 44.2578 146.094 44.7044 146.35 45.0871C146.649 45.4699 147.161 45.6613 147.886 45.6613H151.662Z" fill="#FB8C00"/>
<path d="M182.143 0V3.25355H172.799V0H182.143ZM181.119 50.1907V22.0571L173.823 29.3936V50.1907H168.895V5.91699H173.823V23.4606L181.119 15.869V5.91699H186.047V50.1907H181.119Z" fill="#FB8C00"/>
<path d="M224.83 44.513C224.531 46.1291 223.827 47.4901 222.718 48.5959C221.651 49.6591 220.094 50.1907 218.046 50.1907H214.59V45.2785H218.046C218.601 45.2785 219.028 45.1509 219.326 44.8957C219.625 44.6406 219.817 44.3428 219.902 44.0026L221.374 36.092H216.958L210.046 5.91699H215.102L220.478 31.1798H222.206L226.814 5.91699H231.806L224.83 44.513Z" fill="#FB8C00"/>
<path d="M257.521 5.91699V50.1907H252.593V10.8292H246.961L245.489 44.0664C245.404 46.1078 244.956 47.6389 244.145 48.6596C243.377 49.6804 241.969 50.1907 239.921 50.1907H237.233V45.2785H239.281C239.793 45.2785 240.113 45.2147 240.241 45.0871C240.412 44.917 240.518 44.5768 240.561 44.0664L242.225 5.91699H257.521Z" fill="#FB8C00"/>
<path d="M278.383 5.53422C279.621 5.53422 280.666 5.7256 281.519 6.10837C282.415 6.44861 283.119 6.93771 283.631 7.57566C284.186 8.17108 284.591 8.89409 284.847 9.74469C285.103 10.5528 285.231 11.4246 285.231 12.3603V43.7474C285.231 44.6831 285.103 45.5762 284.847 46.4268C284.591 47.2349 284.186 47.9579 283.631 48.5959C283.119 49.1913 282.415 49.6804 281.519 50.0631C280.666 50.4034 279.621 50.5735 278.383 50.5735H274.608C273.37 50.5735 272.304 50.4034 271.408 50.0631C270.554 49.6804 269.85 49.1913 269.296 48.5959C268.784 47.9579 268.4 47.2349 268.144 46.4268C267.888 45.5762 267.76 44.6831 267.76 43.7474V12.3603C267.76 11.4246 267.888 10.5528 268.144 9.74469C268.4 8.89409 268.784 8.17108 269.296 7.57566C269.85 6.93771 270.554 6.44861 271.408 6.10837C272.304 5.7256 273.37 5.53422 274.608 5.53422H278.383ZM278.383 45.6613C279.066 45.6613 279.557 45.4699 279.855 45.0871C280.154 44.7044 280.303 44.2578 280.303 43.7474V12.3603C280.303 11.8499 280.154 11.4034 279.855 11.0206C279.557 10.6378 279.066 10.4464 278.383 10.4464H274.608C273.882 10.4464 273.37 10.6378 273.072 11.0206C272.816 11.4034 272.688 11.8499 272.688 12.3603V43.7474C272.688 44.2578 272.816 44.7044 273.072 45.0871C273.37 45.4699 273.882 45.6613 274.608 45.6613H278.383Z" fill="#FB8C00"/>
<path d="M305.152 5.91699C306.389 5.91699 307.435 6.10837 308.288 6.49114C309.184 6.83138 309.888 7.32048 310.4 7.95842C310.955 8.55385 311.36 9.27686 311.616 10.1275C311.872 10.9355 312 11.8074 312 12.7431V15.869C312 17.8679 311.637 19.3777 310.912 20.3985C310.229 21.3766 309.312 22.0571 308.16 22.4399C309.312 22.8652 310.229 23.5882 310.912 24.6089C311.637 25.5871 312 27.0757 312 29.0746V43.3647C312 44.598 311.808 45.6613 311.424 46.5544C311.083 47.405 310.592 48.1068 309.952 48.6596C309.355 49.17 308.629 49.5528 307.776 49.808C306.965 50.0631 306.091 50.1907 305.152 50.1907H295.616V5.91699H305.152ZM307.072 28.4366C307.072 27.3308 306.752 26.4802 306.112 25.8848C305.515 25.2469 304.768 24.9279 303.872 24.9279H300.544V45.2785H305.152C305.707 45.2785 306.155 45.1509 306.496 44.8957C306.88 44.598 307.072 44.0877 307.072 43.3647V28.4366ZM307.072 12.7431C307.072 12.2327 306.923 11.7861 306.624 11.4034C306.368 11.0206 305.878 10.8292 305.152 10.8292H300.544V20.0157H303.872C304.768 20.0157 305.515 19.718 306.112 19.1226C306.752 18.4846 307.072 17.6127 307.072 16.507V12.7431Z" fill="#FB8C00"/>
<defs>
<clipPath id="clip0">
<path d="M0 35.1128C0 15.8448 15.6198 0.224928 34.8879 0.224928H74.9978V35.0007C74.9978 54.3307 59.3278 70.0007 39.9978 70.0007H34.8879C15.6199 70.0007 0 54.3809 0 35.1128Z" fill="white"/>
</clipPath>
</defs>
</svg>
