<svg width="26" height="26" viewBox="0 0 26 26" fill="none" xmlns="http://www.w3.org/2000/svg">
<path d="M10.8182 1L10.8182 0H10.8182V1ZM20.6363 10.8182H21.6363V10.8181L20.6363 10.8182ZM18.8502 17.4361C18.4597 17.0456 17.8265 17.0456 17.436 17.4361C17.0455 17.8266 17.0455 18.4598 17.436 18.8503L18.8502 17.4361ZM24.2929 25.7072C24.6834 26.0977 25.3166 26.0977 25.7071 25.7072C26.0976 25.3167 26.0976 24.6835 25.7071 24.293L24.2929 25.7072ZM10.8182 0C8.67853 0 6.58695 0.634475 4.80791 1.82319L5.91905 3.48613C7.36919 2.51718 9.07409 2 10.8182 2V0ZM4.80791 1.82319C3.02888 3.01191 1.64229 4.70147 0.823487 6.67824L2.67125 7.4436C3.33867 5.83229 4.46892 4.45508 5.91905 3.48613L4.80791 1.82319ZM0.823487 6.67824C0.00468677 8.655 -0.209548 10.8302 0.207872 12.9287L2.16944 12.5385C1.82919 10.828 2.00382 9.05491 2.67125 7.4436L0.823487 6.67824ZM0.207872 12.9287C0.625293 15.0272 1.65562 16.9548 3.16857 18.4678L4.58278 17.0536C3.34954 15.8203 2.50969 14.2491 2.16944 12.5385L0.207872 12.9287ZM3.16857 18.4678C4.68151 19.9807 6.60912 21.011 8.70764 21.4285L9.09782 19.4669C7.38727 19.1266 5.81602 18.2868 4.58278 17.0536L3.16857 18.4678ZM8.70764 21.4285C10.8062 21.8459 12.9813 21.6317 14.9581 20.8129L14.1927 18.9651C12.5814 19.6325 10.8084 19.8071 9.09782 19.4669L8.70764 21.4285ZM14.9581 20.8129C16.9348 19.994 18.6244 18.6075 19.8131 16.8284L18.1502 15.7173C17.1812 17.1674 15.804 18.2977 14.1927 18.9651L14.9581 20.8129ZM19.8131 16.8284C21.0018 15.0494 21.6363 12.9578 21.6363 10.8182H19.6363C19.6363 12.5622 19.1191 14.2671 18.1502 15.7173L19.8131 16.8284ZM21.6363 10.8181C21.6361 7.94902 20.4963 5.1975 18.4676 3.16875L17.0533 4.58296C18.707 6.23667 19.6362 8.47954 19.6363 10.8182L21.6363 10.8181ZM18.4676 3.16875C16.4388 1.14 13.6873 0.000182629 10.8182 0L10.8181 2C13.1568 2.00015 15.3996 2.92926 17.0533 4.58296L18.4676 3.16875ZM17.436 18.8503L24.2929 25.7072L25.7071 24.293L18.8502 17.4361L17.436 18.8503Z" fill="white"/>
</svg>
