<svg style="display: none"><symbol id="symbols"><title>account</title><symbol id="symbols-symbols"><symbol id="symbols-symbols-symbols"><symbol id="symbols-symbols-symbols-symbols"><symbol id="symbols-symbols-symbols-symbols-symbols"><symbol id="symbols-symbols-symbols-symbols-symbols-symbols"><symbol id="symbols-symbols-symbols-symbols-symbols-symbols-symbols"><symbol id="symbols-symbols-symbols-symbols-symbols-symbols-symbols-symbols"><symbol id="symbols-symbols-symbols-symbols-symbols-symbols-symbols-symbols-symbols"><symbol id="symbols-symbols-symbols-symbols-symbols-symbols-symbols-symbols-symbols-symbols"><symbol viewBox="0 0 40 40" id="symbols-symbols-symbols-symbols-symbols-symbols-symbols-symbols-symbols-symbols-account"> <path d="M20 8C18.4241 8 16.8637 8.31039 15.4078 8.91345C13.9519 9.5165 12.629 10.4004 11.5147 11.5147C9.26428 13.7652 8 16.8174 8 20C8 23.1826 9.26428 26.2348 11.5147 28.4853C12.629 29.5996 13.9519 30.4835 15.4078 31.0866C16.8637 31.6896 18.4241 32 20 32C23.1826 32 26.2348 30.7357 28.4853 28.4853C30.7357 26.2348 32 23.1826 32 20C32 18.4241 31.6896 16.8637 31.0866 15.4078C30.4835 13.9519 29.5996 12.629 28.4853 11.5147C27.371 10.4004 26.0481 9.5165 24.5922 8.91345C23.1363 8.31039 21.5759 8 20 8ZM14.084 27.536C14.6 26.456 17.744 25.4 20 25.4C22.256 25.4 25.4 26.456 25.916 27.536C24.2353 28.8752 22.149 29.6031 20 29.6C17.768 29.6 15.716 28.832 14.084 27.536ZM27.632 25.796C25.916 23.708 21.752 23 20 23C18.248 23 14.084 23.708 12.368 25.796C11.0914 24.1335 10.3996 22.096 10.4 20C10.4 14.708 14.708 10.4 20 10.4C25.292 10.4 29.6 14.708 29.6 20C29.6 22.184 28.856 24.2 27.632 25.796ZM20 12.8C17.672 12.8 15.8 14.672 15.8 17C15.8 19.328 17.672 21.2 20 21.2C22.328 21.2 24.2 19.328 24.2 17C24.2 14.672 22.328 12.8 20 12.8ZM20 18.8C19.5226 18.8 19.0648 18.6104 18.7272 18.2728C18.3896 17.9352 18.2 17.4774 18.2 17C18.2 16.5226 18.3896 16.0648 18.7272 15.7272C19.0648 15.3896 19.5226 15.2 20 15.2C20.4774 15.2 20.9352 15.3896 21.2728 15.7272C21.6104 16.0648 21.8 16.5226 21.8 17C21.8 17.4774 21.6104 17.9352 21.2728 18.2728C20.9352 18.6104 20.4774 18.8 20 18.8Z" fill="#2E3451"/> <path d="M20 18.8C19.5226 18.8 19.0648 18.6104 18.7272 18.2728C18.3896 17.9352 18.2 17.4774 18.2 17C18.2 16.5226 18.3896 16.0648 18.7272 15.7272C19.0648 15.3896 19.5226 15.2 20 15.2C20.4774 15.2 20.9352 15.3896 21.2728 15.7272C21.6104 16.0648 21.8 16.5226 21.8 17C21.8 17.4774 21.6104 17.9352 21.2728 18.2728C20.9352 18.6104 20.4774 18.8 20 18.8Z" fill="#2E3451"/> <path d="M14.084 27.536C14.6 26.456 17.744 25.4 20 25.4C22.256 25.4 25.4 26.456 25.916 27.536C24.2353 28.8752 22.149 29.6031 20 29.6C17.768 29.6 15.716 28.832 14.084 27.536Z" fill="#2E3451"/> </symbol><symbol id="symbols-symbols-symbols-symbols-symbols-symbols-symbols-symbols-symbols-symbols-symbols"><symbol id="symbols-symbols-symbols-symbols-symbols-symbols-symbols-symbols-symbols-symbols-symbols-symbols"><symbol id="symbols-symbols-symbols-symbols-symbols-symbols-symbols-symbols-symbols-symbols-symbols-symbols-symbols"><symbol id="symbols-symbols-symbols-symbols-symbols-symbols-symbols-symbols-symbols-symbols-symbols-symbols-symbols-symbols"/></symbol></symbol></symbol></symbol></symbol></symbol></symbol></symbol></symbol></symbol></symbol></symbol></symbol></svg>