<svg width="26" height="26" fill="none" xmlns="http://www.w3.org/2000/svg"><path d="M10.818 1V0v1zm9.818 9.818h1-1zm-1.786 6.618a1 1 0 00-1.414 1.414l1.414-1.414zm5.443 8.271a1 1 0 001.414-1.414l-1.414 1.414zM10.818 0c-2.14 0-4.231.634-6.01 1.823l1.111 1.663A8.818 8.818 0 0110.82 2V0zm-6.01 1.823A10.818 10.818 0 00.823 6.678l1.848.766A8.818 8.818 0 015.92 3.486L4.808 1.823zM.823 6.678a10.818 10.818 0 00-.615 6.25l1.961-.39a8.818 8.818 0 01.502-5.094L.823 6.678zm-.615 6.25a10.818 10.818 0 002.96 5.54l1.415-1.414a8.818 8.818 0 01-2.414-4.515l-1.961.39zm2.96 5.54a10.819 10.819 0 005.54 2.96l.39-1.961a8.819 8.819 0 01-4.515-2.413l-1.414 1.414zm5.54 2.96a10.81 10.81 0 006.25-.615l-.765-1.848a8.819 8.819 0 01-5.095.502l-.39 1.962zm6.25-.615a10.819 10.819 0 004.855-3.985l-1.663-1.11a8.819 8.819 0 01-3.957 3.247l.765 1.848zm4.855-3.985a10.818 10.818 0 001.823-6.01h-2a8.819 8.819 0 01-1.486 4.9l1.663 1.11zm1.823-6.01c0-2.869-1.14-5.62-3.168-7.65l-1.415 1.415a8.819 8.819 0 012.583 6.235h2zm-3.168-7.65A10.819 10.819 0 0010.818 0v2c2.339 0 4.582.93 6.235 2.583l1.415-1.414zM17.436 18.85l6.857 6.857 1.414-1.414-6.857-6.857-1.414 1.414z" fill="#fff"/></svg>