<svg width="30" height="30" fill="none" xmlns="http://www.w3.org/2000/svg"><path fill-rule="evenodd" clip-rule="evenodd" d="M28.615.12c.213.096.38.27.467.487 1.632 4.694-1.308 8.53-4.14 10.7l.519.744c.287.41.387 1.128.222 1.599l-1.497 4.717c-.165.473-.633 1.09-1.038 1.377L9.057 29.626c-.684.477-1.45.56-1.93-.123L.722 20.341a1.515 1.515 0 01.37-2.106l14.091-9.88a3.243 3.243 0 011.646-.507l4.782-.021c.498.006 1.139.346 1.425.756l.852 1.22c2.109-1.601 4.875-4.592 3.482-8.597A.908.908 0 0128.614.119zm-6.951 14.903a2.411 2.411 0 001.857-2.758c-.325.194-.637.357-.928.495a.91.91 0 01-.386.089.908.908 0 01-.388-1.73 9.25 9.25 0 00.741-.412 2.411 2.411 0 00-3.795 1.536 2.42 2.42 0 001.957 2.8c.312.056.632.049.942-.02zm-9.703 9.819L11.755 13.5l-1.205.658.205 11.342 1.206-.658zm5.306-6.344c.55.9.79 1.67.721 2.308-.068.639-.432 1.137-1.09 1.497-.63.344-1.26.38-1.89.107-.633-.276-1.216-.85-1.749-1.724-1.093-1.79-.976-3.047.349-3.771.638-.348 1.274-.388 1.908-.118.639.268 1.222.835 1.75 1.7zm-1.816 2.738c-.297-.224-.624-.628-.98-1.212-.357-.584-.56-1.05-.613-1.397-.048-.35.065-.6.338-.748.543-.297 1.165.129 1.865 1.277.71 1.163.794 1.893.252 2.19-.274.148-.56.112-.862-.11zM9.975 20.6c.066-.643-.175-1.414-.725-2.315-.527-.862-1.107-1.428-1.741-1.698-.633-.276-1.274-.236-1.924.119-1.322.721-1.436 1.977-.343 3.767.531.87 1.112 1.446 1.743 1.728.632.276 1.263.242 1.893-.101.667-.364 1.032-.864 1.097-1.5zm-3.514-.777c.356.584.682.986.976 1.206.295.22.58.256.852.107.547-.299.468-1.026-.238-2.181-.705-1.156-1.331-1.584-1.878-1.286-.273.15-.383.4-.328.751.054.352.26.82.616 1.403z" fill="#fff"/></svg>