<svg width="20" height="20" fill="none" xmlns="http://www.w3.org/2000/svg"><mask id="a" fill="#fff"><path d="M4.063 12.5h-1.25a.312.312 0 00-.313.313v5.624c0 .173.14.313.313.313h1.25c.172 0 .312-.14.312-.313v-5.625a.312.312 0 00-.313-.312z"/></mask><path d="M2.813 14.5h1.25v-4h-1.25v4zm1.25 0a1.687 1.687 0 01-1.688-1.688h4A2.312 2.312 0 004.062 10.5v4zm-1.688-1.688v5.626h4v-5.625h-4zm0 5.626c0-.932.756-1.688 1.688-1.688v4a2.312 2.312 0 002.312-2.313h-4zm1.688-1.688h-1.25v4h1.25v-4zm-1.25 0c.931 0 1.687.756 1.687 1.688h-4a2.312 2.312 0 002.313 2.312v-4zM4.5 18.438v-5.625h-4v5.624h4zm0-5.625c0 .931-.756 1.687-1.688 1.687v-4A2.312 2.312 0 00.5 12.813h4z" fill="#F2F2F2" mask="url(#a)"/><mask id="b" fill="#fff"><path d="M12.813 8.75h-1.25a.312.312 0 00-.313.313v9.374c0 .173.14.313.313.313h1.25c.172 0 .312-.14.312-.313V9.063a.312.312 0 00-.313-.312z"/></mask><path d="M11.563 10.75h1.25v-4h-1.25v4zm1.25 0a1.687 1.687 0 01-1.688-1.688h4a2.312 2.312 0 00-2.313-2.312v4zm-1.688-1.688v9.376h4V9.063h-4zm0 9.376c0-.932.755-1.688 1.688-1.688v4a2.312 2.312 0 002.312-2.313h-4zm1.688-1.688h-1.25v4h1.25v-4zm-1.25 0c.931 0 1.687.756 1.687 1.688h-4a2.312 2.312 0 002.313 2.312v-4zm1.687 1.688V9.063h-4v9.374h4zm0-9.375c0 .931-.755 1.687-1.688 1.687v-4A2.312 2.312 0 009.25 9.063h4z" fill="#F2F2F2" mask="url(#b)"/><mask id="c" fill="#fff"><path d="M17.188 4.375h-1.25a.312.312 0 00-.313.313v13.75c0 .172.14.312.313.312h1.25c.172 0 .312-.14.312-.313V4.688a.312.312 0 00-.313-.312z"/></mask><path d="M15.938 6.375h1.25v-4h-1.25v4zm1.25 0A1.687 1.687 0 0115.5 4.687h4a2.312 2.312 0 00-2.313-2.312v4zM15.5 4.687v13.75h4V4.688h-4zm0 13.75c0-.931.756-1.687 1.688-1.687v4a2.312 2.312 0 002.312-2.313h-4zm1.688-1.687h-1.25v4h1.25v-4zm-1.25 0c.931 0 1.687.756 1.687 1.688h-4a2.312 2.312 0 002.313 2.312v-4zm1.687 1.688V4.688h-4v13.75h4zm0-13.75c0 .931-.756 1.687-1.688 1.687v-4a2.312 2.312 0 00-2.312 2.313h4z" fill="#F2F2F2" mask="url(#c)"/><mask id="d" fill="#fff"><path d="M8.438 1.25h-1.25a.312.312 0 00-.313.313v16.875c0 .172.14.312.313.312h1.25c.172 0 .312-.14.312-.313V1.563a.312.312 0 00-.313-.312z"/></mask><path d="M7.188 3.25h1.25v-4h-1.25v4zm1.25 0A1.688 1.688 0 016.75 1.562h4A2.312 2.312 0 008.437-.75v4zM6.75 1.562v16.875h4V1.563h-4zm0 16.875c0-.931.756-1.687 1.688-1.687v4a2.312 2.312 0 002.312-2.313h-4zm1.688-1.687h-1.25v4h1.25v-4zm-1.25 0c.931 0 1.687.756 1.687 1.688h-4a2.312 2.312 0 002.313 2.312v-4zm1.687 1.688V1.563h-4v16.875h4zm0-16.875c0 .931-.756 1.687-1.688 1.687v-4a2.312 2.312 0 00-2.312 2.313h4z" fill="#F2F2F2" mask="url(#d)"/></svg>