<svg width="20" height="13" fill="none" xmlns="http://www.w3.org/2000/svg"><path fill-rule="evenodd" clip-rule="evenodd" d="M19.541 1.334c.14-.464 0-.804-.662-.804h-2.188c-.556 0-.812.294-.951.619 0 0-1.113 2.712-2.69 4.473-.51.51-.741.672-1.02.672-.138 0-.34-.162-.34-.625V1.334c0-.556-.161-.804-.625-.804H7.627c-.348 0-.557.258-.557.503 0 .527.788.649.87 2.132v3.222c0 .707-.128.835-.406.835-.742 0-2.546-2.724-3.617-5.842-.21-.605-.42-.85-.979-.85H.75C.125.53 0 .824 0 1.149c0 .58.742 3.454 3.454 7.255 1.808 2.596 4.355 4.004 6.673 4.004 1.391 0 1.563-.313 1.563-.851V9.594c0-.625.132-.75.572-.75.325 0 .881.163 2.18 1.415 1.483 1.483 1.727 2.149 2.562 2.149h2.188c.625 0 .938-.313.757-.93-.197-.615-.905-1.506-1.845-2.564-.51-.603-1.275-1.252-1.507-1.576-.324-.418-.232-.603 0-.974 0 0 2.666-3.755 2.944-5.03z" fill="#fff"/></svg>