<svg width="20" height="20" fill="none" xmlns="http://www.w3.org/2000/svg"><path fill-rule="evenodd" clip-rule="evenodd" d="M6.213 17.631c-.914-.042-1.411-.194-1.741-.323a2.914 2.914 0 01-1.078-.7 2.892 2.892 0 01-.702-1.078c-.128-.33-.28-.827-.322-1.741-.046-.989-.055-1.285-.055-3.789 0-2.503.01-2.8.055-3.789.041-.914.195-1.41.322-1.74.17-.438.374-.75.702-1.079a2.89 2.89 0 011.078-.701c.33-.129.827-.281 1.74-.323.99-.045 1.286-.054 3.788-.054 2.503 0 2.8.01 3.789.054.914.042 1.41.195 1.741.323a2.9 2.9 0 011.078.701c.329.328.531.64.702 1.078.128.33.28.827.322 1.741.045.99.055 1.285.055 3.79 0 2.503-.01 2.799-.055 3.788-.042.914-.195 1.41-.322 1.74-.17.438-.374.75-.702 1.078a2.9 2.9 0 01-1.078.701c-.33.13-.827.282-1.741.323-.988.046-1.285.055-3.789.055-2.503 0-2.8-.01-3.787-.055zM10 14.814a4.814 4.814 0 110-9.628 4.814 4.814 0 010 9.628zm4.07-9.194a1.125 1.125 0 111.871-1.249 1.125 1.125 0 01-1.872 1.25z" fill="#fff"/><path fill-rule="evenodd" clip-rule="evenodd" d="M6.213 17.631c-.914-.042-1.411-.194-1.741-.323a2.914 2.914 0 01-1.078-.7 2.892 2.892 0 01-.702-1.078c-.128-.33-.28-.827-.322-1.741-.046-.989-.055-1.285-.055-3.789 0-2.503.01-2.8.055-3.789.041-.914.195-1.41.322-1.74.17-.438.374-.75.702-1.079a2.89 2.89 0 011.078-.701c.33-.129.827-.281 1.74-.323.99-.045 1.286-.054 3.788-.054 2.503 0 2.8.01 3.789.054.914.042 1.41.195 1.741.323a2.9 2.9 0 011.078.701c.329.328.531.64.702 1.078.128.33.28.827.322 1.741.045.99.055 1.285.055 3.79 0 2.503-.01 2.799-.055 3.788-.042.914-.195 1.41-.322 1.74-.17.438-.374.75-.702 1.078a2.9 2.9 0 01-1.078.701c-.33.13-.827.282-1.741.323-.988.046-1.285.055-3.789.055-2.503 0-2.8-.01-3.787-.055zM6.135.681c-.998.046-1.68.204-2.275.436-.617.24-1.14.56-1.661 1.082a4.58 4.58 0 00-1.081 1.66c-.232.596-.39 1.278-.436 2.276C.636 7.135.625 7.454.625 10c0 2.546.01 2.866.057 3.865.046.998.204 1.68.436 2.276.239.616.56 1.14 1.08 1.66a4.61 4.61 0 001.662 1.082c.596.232 1.277.39 2.275.435 1 .046 1.32.057 3.865.057 2.546 0 2.866-.01 3.866-.057.998-.045 1.68-.204 2.275-.435a4.61 4.61 0 001.66-1.082 4.592 4.592 0 001.082-1.66c.232-.596.39-1.278.436-2.276.045-1 .056-1.32.056-3.865 0-2.546-.011-2.866-.056-3.865-.046-.998-.204-1.68-.436-2.276a4.61 4.61 0 00-1.081-1.66 4.588 4.588 0 00-1.66-1.082c-.597-.232-1.278-.39-2.276-.435-1-.046-1.319-.057-3.865-.057-2.546 0-2.866.01-3.866.057z" fill="#fff"/></svg>