<svg width="19" height="15" fill="none" xmlns="http://www.w3.org/2000/svg"><path d="M16.352 3.758v.469c0 4.851-3.704 10.453-10.454 10.453-2.085 0-4.007-.61-5.648-1.64.281.023.586.046.867.046a7.437 7.437 0 004.57-1.57 3.637 3.637 0 01-3.42-2.556c.234.047.445.07.703.07.328 0 .656-.047.96-.14A3.648 3.648 0 01.978 5.305v-.047a3.61 3.61 0 001.664.469A3.68 3.68 0 011 2.657c0-.68.188-1.313.492-1.852a10.454 10.454 0 007.57 3.843 3.328 3.328 0 01-.093-.843 3.67 3.67 0 013.68-3.68c1.054 0 2.015.445 2.671 1.148a7.467 7.467 0 002.344-.89 3.787 3.787 0 01-1.617 2.039 7.038 7.038 0 002.11-.586 6.715 6.715 0 01-1.805 1.922z" fill="#fff"/></svg>