<svg width="40" height="40" fill="none" xmlns="http://www.w3.org/2000/svg"><path d="M20 8a12 12 0 100 24 12 12 0 000-24zm-5.916 19.536C14.6 26.456 17.744 25.4 20 25.4c2.256 0 5.4 1.056 5.916 2.136A9.472 9.472 0 0120 29.6a9.471 9.471 0 01-5.916-2.064zm13.548-1.74C25.916 23.708 21.752 23 20 23c-1.752 0-5.916.708-7.632 2.796A9.514 9.514 0 0110.4 20c0-5.292 4.308-9.6 9.6-9.6s9.6 4.308 9.6 9.6c0 2.184-.744 4.2-1.968 5.796zM20 12.8a4.19 4.19 0 00-4.2 4.2 4.19 4.19 0 004.2 4.2 4.19 4.19 0 004.2-4.2 4.19 4.19 0 00-4.2-4.2zm0 6a1.8 1.8 0 110-3.6 1.8 1.8 0 010 3.6z" fill="#2E3451"/><path d="M20 18.8a1.8 1.8 0 110-3.6 1.8 1.8 0 010 3.6zm-5.916 8.736C14.6 26.456 17.744 25.4 20 25.4c2.256 0 5.4 1.056 5.916 2.136A9.472 9.472 0 0120 29.6a9.471 9.471 0 01-5.916-2.064z" fill="#2E3451"/></svg>