<svg width="24" height="24" fill="none" xmlns="http://www.w3.org/2000/svg"><path d="M21.41 6.087C18.11 1 11.374-.513 6.149 2.65 1.061 5.812-.589 12.687 2.711 17.775l.275.413-1.1 4.125 4.125-1.1.412.274C8.211 22.45 10.136 23 12.061 23c2.062 0 4.125-.55 5.912-1.65 5.088-3.3 6.6-10.038 3.438-15.263zm-2.887 10.588c-.55.825-1.237 1.375-2.2 1.512-.55 0-1.237.275-3.987-.825-2.338-1.1-4.263-2.887-5.638-4.95-.825-.962-1.237-2.2-1.375-3.437 0-1.1.413-2.063 1.1-2.75.275-.275.55-.413.825-.413h.688c.275 0 .55 0 .687.55.275.688.963 2.338.963 2.475a.418.418 0 010 .55c.137.275 0 .55-.138.688-.137.137-.275.412-.412.55-.275.137-.413.412-.275.687.55.825 1.237 1.65 1.925 2.338.825.687 1.65 1.237 2.612 1.65.275.137.55.137.688-.138.137-.275.825-.962 1.1-1.237.275-.275.412-.275.687-.138l2.2 1.1c.275.138.55.275.688.413.137.412.137.962-.138 1.375z" fill="#00D115"/></svg>