<svg width="26" height="26" fill="none" xmlns="http://www.w3.org/2000/svg"><path d="M3.5 17.771h-2c-.375 0-.7.29-.7.672v6.086c0 .381.325.671.7.671h2c.375 0 .7-.29.7-.671v-6.086c0-.382-.325-.672-.7-.672zm14-5.657h-2c-.375 0-.7.29-.7.672v11.743c0 .381.325.671.7.671h2c.375 0 .7-.29.7-.671V12.786c0-.382-.325-.672-.7-.672zm7-6.6h-2c-.375 0-.7.29-.7.672v18.343c0 .381.325.671.7.671h2c.375 0 .7-.29.7-.671V6.186c0-.382-.325-.672-.7-.672zM10.5.8h-2c-.375 0-.7.29-.7.671V24.53c0 .381.325.671.7.671h2c.375 0 .7-.29.7-.671V1.47c0-.381-.325-.671-.7-.671z" fill="#2E3451" stroke="#2E3451" stroke-width=".4" stroke-linecap="round" stroke-linejoin="round"/></svg>