<svg width="28" height="24" fill="none" xmlns="http://www.w3.org/2000/svg"><path d="M9.219 16h14.397a.794.794 0 00.765-.58l3.188-11.2a.797.797 0 00-.766-1.02H7.38L6.81.627A.798.798 0 006.031 0H1.197A.798.798 0 00.4.8c0 .442.357.8.797.8h4.195l2.877 13a2.402 2.402 0 00-1.44 2.2c0 1.323 1.072 2.4 2.39 2.4h14.397c.44 0 .797-.358.797-.8 0-.442-.357-.8-.797-.8H9.219a.8.8 0 010-1.6zm-.797 5.6c0 1.324 1.072 2.4 2.39 2.4a2.398 2.398 0 002.391-2.4c0-1.323-1.072-2.4-2.39-2.4a2.398 2.398 0 00-2.391 2.4zm11.209 0c0 1.324 1.073 2.4 2.391 2.4a2.398 2.398 0 002.39-2.4c0-1.323-1.072-2.4-2.39-2.4a2.398 2.398 0 00-2.39 2.4z" fill="#2E3451"/></svg>