<svg width="24" height="24" fill="none" xmlns="http://www.w3.org/2000/svg"><path d="M18.623 14.858c.537.2 3.415 1.604 4.006 1.904l.025-.146c.59.26.974.406 1.12.674.145.261.145 1.412-.354 2.801-.492 1.38-2.84 2.617-3.96 2.801-1.013.146-2.294.208-3.699-.237-.851-.292-1.941-.646-3.345-1.236-5.886-2.533-9.723-8.426-10.022-8.81C2.102 12.197 0 9.427 0 6.564c0-2.855 1.519-4.266 2.057-4.857C2.595 1.146 3.232 1 3.623 1c.39 0 .782 0 1.12.03.36 0 .851-.145 1.32.998.49 1.153 1.665 4.045 1.81 4.336.146.292.245.615.053 1.029-.207.383-.299.62-.583.974-.3.353-.622.76-.89 1.028-.292.292-.598.622-.253 1.205.346.59 1.511 2.51 3.262 4.066 2.24 2.01 4.128 2.624 4.719 2.924.582.26.92.23 1.265-.154.345-.384 1.473-1.703 1.857-2.279.392-.59.782-.49 1.32-.299z" fill="#2E3451"/></svg>