<svg width="312" height="70" fill="none" xmlns="http://www.w3.org/2000/svg"><g clip-path="url(#clip0)" fill-rule="evenodd" clip-rule="evenodd"><path d="M18.737 59.999l.045-.004-5.116-.904H0v4.714h40.218L18.738 60zm-5.071 5.391H0V70h39.79l-26.124-4.61zm61.07 4.533l-25.593-4.536-26.412.004L48.883 70h25.854l-.001-.078zm.999-12.55l-25.684-4.53-25.798.003v-.003h-.575l52.065 9.224-.008-4.694zm-62.124-4.53H0v4.717h40.368L13.61 52.843zm9.858 6.248L56 64.831l19.743 3.483-.007-4.69-25.708-4.536-26.56.003zm52.258-6.245H58.881l16.853 2.974-.007-2.974z" fill="#292F4B"/><path d="M68.084 49.113H49.342a75.7 75.7 0 00.842-1.58l.534-1.092 1.482-3.336c.304-.753.607-1.51.88-2.27.144-.382.276-.77.407-1.157l.06-.171c.113-.331.227-.663.328-.993l.703-2.341c.075-.261.142-.526.21-.79l.102-.396c.107-.4.205-.803.295-1.206l.1-.432c.06-.256.12-.512.173-.773l.235-1.197c.056-.267.1-.539.144-.81l.076-.458c.067-.395.133-.79.183-1.184l.295-2.452c.045-.417.077-.835.102-1.252l.103-2.008c.02-.579-.003-12.155-.003-12.155 8.267 5.911 13.656 15.552 13.656 26.45 0 4.091-.78 7.996-2.165 11.603zm-20.107-2.48a71.662 71.662 0 01-.77 2.226c-.03.085-.064.17-.097.254H17.763c.237-.607.481-1.211.752-1.8 1.173-2.607 2.707-5.107 4.549-7.445.15.441.319.884.537 1.316a12.002 12.002 0 002.241 3.17c.449.462.931.877 1.428 1.236.49.366 1.002.67 1.5.926s.992.45 1.454.602c.23.078.458.132.67.19.215.05.422.089.614.125.388.06.726.093 1.006.1.277.022.498 0 .646-.004l.227-.013-.214-.077c-.14-.048-.343-.117-.595-.217-.253-.09-.551-.228-.888-.378a14.52 14.52 0 01-1.09-.571c-.191-.117-.394-.228-.592-.366a10.459 10.459 0 01-.61-.417c-.41-.297-.826-.628-1.231-.998-.206-.18-.403-.377-.605-.572-.192-.206-.396-.404-.582-.622a14.23 14.23 0 01-1.078-1.357 14.306 14.306 0 01-.923-1.466 15.615 15.615 0 01-.733-1.514c-.053-.126-.085-.246-.133-.371a45.218 45.218 0 015.557-5.5c2.269-1.91 4.833-3.735 7.625-5.427 1.298-.797 13.463-6.955 13.95-7.079l.147 1.112c.075.749.142 1.5.182 2.23l.016 1.15c.008.372.008.746-.005 1.128l-.07 2.293c-.012.349-.039.696-.071 1.124l-.032.419c-.016.24-.034.48-.06.722l-.05.49c-.061.599-.12 1.2-.204 1.81a27.41 27.41 0 01-.153 1.128l-.064.428c-.035.237-.07.476-.112.713l-.416 2.291c-.054.299-.118.594-.181.89l-.052.24c-.08.376-.16.75-.255 1.135-.173.755-.36 1.51-.555 2.255l-1.333 4.491zm-36.927 2.48H6.9A32.273 32.273 0 014.733 37.51c0-17.987 14.666-32.568 32.758-32.568 6.64 0 12.814 1.97 17.975 5.346l-.493 3.206-2.271.764c-1.578.53-3.161 1.08-4.733 1.673-1.605.6-3.188 1.23-4.703 1.868a87.592 87.592 0 00-4.634 2.127 82.02 82.02 0 00-4.53 2.408c-3.132 1.82-6.004 3.79-8.539 5.858-2.817 2.318-5.306 4.825-7.404 7.453a42.153 42.153 0 00-5.506 9.082 40.53 40.53 0 00-1.604 4.386zM74.998.225H0v49.85h74.983l.015-49.85z" fill="#FB8C00"/><path d="M41.747 31.77a3.548 3.548 0 00-4.974.557 3.518 3.518 0 00.558 4.955 3.547 3.547 0 004.974-.555 3.518 3.518 0 00-.558-4.957z" fill="#FB8C00"/></g><path d="M97.23 57.535v11.069h-1.233v-9.84H94.59l-.368 8.309c-.021.51-.133.893-.336 1.148-.192.255-.544.383-1.056.383h-.672v-1.228h.512c.128 0 .208-.016.24-.048.043-.043.07-.128.08-.255l.416-9.538h3.824zm8.569 9.649a1.893 1.893 0 01-.528 1.02c-.267.267-.656.4-1.168.4h-.864v-1.228h.864a.48.48 0 00.32-.096.436.436 0 00.144-.224l.368-1.977h-1.104l-1.728-7.544h1.264l1.344 6.316h.432l1.152-6.316h1.248l-1.744 9.65zm10.696-9.649v11.069h-1.248v-3.51h-1.248a2.33 2.33 0 01-.672-.095 1.663 1.663 0 01-.544-.287 1.598 1.598 0 01-.368-.526 2.22 2.22 0 01-.128-.798v-5.853h1.232v5.853c0 .181.048.309.144.383a.593.593 0 00.336.096h1.248v-6.332h1.248zm11.3 9.841v-9.84h1.232v11.068h-7.087V57.535h1.232v9.84h1.696v-9.84h1.231v9.84h1.696zm9.728 1.228V61.57l-1.824 1.834v5.2h-1.232V57.535h1.232v4.386l1.824-1.898v-2.488h1.232v11.069h-1.232zm9.987-13.047v.814h-2.336v-.814h2.336zm-.256 13.047V61.57l-1.824 1.834v5.2h-1.232V57.535h1.232v4.386l1.824-1.898v-2.488h1.232v11.069h-1.232zm15.056-11.069c.309 0 .571.048.784.144.224.085.4.207.528.366.139.15.24.33.304.543.064.202.096.42.096.654v.781c0 .5-.091.877-.272 1.133-.171.244-.4.414-.688.51.288.106.517.287.688.542.181.245.272.617.272 1.117v3.572c0 .308-.048.574-.144.797a1.34 1.34 0 01-.368.527 1.476 1.476 0 01-.544.287 2.174 2.174 0 01-.656.096h-2.384V57.535h2.384zm.48 5.63c0-.276-.08-.49-.24-.638a.735.735 0 00-.56-.24h-.832v5.089h1.152a.546.546 0 00.336-.096c.096-.075.144-.202.144-.383v-3.732zm0-3.923a.527.527 0 00-.112-.335c-.064-.096-.187-.144-.368-.144h-1.152v2.297h.832a.76.76 0 00.56-.224c.16-.159.24-.377.24-.653v-.941zm8.923 1.802c.309 0 .571.048.784.143.224.085.4.208.528.367.139.15.24.33.304.542.064.203.096.42.096.654v4.147c0 .308-.048.574-.144.797a1.34 1.34 0 01-.368.527 1.476 1.476 0 01-.544.287 2.169 2.169 0 01-.656.096h-2.4V57.535h1.232v3.509h1.168zm.48 1.706a.488.488 0 00-.112-.335c-.064-.095-.186-.143-.368-.143h-1.168v5.104h1.168a.546.546 0 00.336-.096c.096-.075.144-.202.144-.383V62.75zm3.936-5.215v11.069h-1.232V57.535h1.232zm7.862 3.509c.31 0 .571.048.784.143.224.085.4.208.528.367.139.15.24.33.304.542.064.203.096.42.096.654v4.147c0 .308-.048.574-.144.797a1.34 1.34 0 01-.368.527 1.48 1.48 0 01-.544.287 2.169 2.169 0 01-.656.096h-2.416V57.535h3.808v1.228h-2.576v2.28h1.184zm.48 1.706a.527.527 0 00-.112-.335c-.064-.095-.186-.143-.368-.143h-1.184v5.104h1.184a.546.546 0 00.336-.096c.096-.075.144-.202.144-.383V62.75zm9.101-5.31c.309 0 .57.047.784.143.224.085.4.207.528.367.138.149.24.33.304.542.064.202.096.42.096.654v7.847c0 .234-.032.457-.096.67a1.525 1.525 0 01-.304.542 1.414 1.414 0 01-.528.367 2.128 2.128 0 01-.784.127h-.944c-.31 0-.576-.042-.8-.127a1.597 1.597 0 01-.528-.367 1.656 1.656 0 01-.288-.542 2.312 2.312 0 01-.096-.67v-7.847c0-.234.032-.452.096-.654.064-.213.16-.393.288-.542.138-.16.314-.282.528-.367a2.02 2.02 0 01.8-.144h.944zm0 10.031c.17 0 .293-.048.368-.143a.533.533 0 00.112-.335v-7.847a.533.533 0 00-.112-.335c-.075-.096-.198-.144-.368-.144h-.944c-.182 0-.31.048-.384.144a.588.588 0 00-.096.335v7.847a.59.59 0 00.096.335c.074.095.202.143.384.143h.944zm11.124-4.083c0 .309-.048.575-.144.798a1.35 1.35 0 01-.368.526c-.16.128-.347.223-.56.287a2.178 2.178 0 01-.656.096h-1.136v3.509H200.6V57.535h2.368c.309 0 .57.048.784.144a1.371 1.371 0 01.848.909c.064.202.096.42.096.654v4.146zm-1.248-4.146a.533.533 0 00-.112-.335c-.064-.096-.187-.144-.368-.144h-1.136v5.104h1.136a.55.55 0 00.336-.096c.096-.074.144-.202.144-.383v-4.146zm14.857-1.707c.31 0 .571.048.784.144.224.085.4.207.528.366.139.15.24.33.304.543.064.202.096.42.096.654v.781c0 .5-.091.877-.272 1.133-.17.244-.4.414-.688.51.288.106.518.287.688.542.181.245.272.617.272 1.117v3.572c0 .308-.048.574-.144.797a1.34 1.34 0 01-.368.527 1.48 1.48 0 01-.544.287 2.169 2.169 0 01-.656.096h-2.384V57.535h2.384zm.48 5.63c0-.276-.08-.49-.24-.638a.735.735 0 00-.56-.24h-.832v5.089h1.152a.546.546 0 00.336-.096c.096-.075.144-.202.144-.383v-3.732zm0-3.923a.527.527 0 00-.112-.335c-.064-.096-.186-.144-.368-.144h-1.152v2.297h.832a.76.76 0 00.56-.224c.16-.159.24-.377.24-.653v-.941zm15.576 9.362V61.57l-1.824 1.834v5.2h-1.232V57.535h1.232v4.386l1.824-1.898v-2.488h1.232v11.069h-1.232zm9.811-7.544v-3.525h1.232v11.069h-1.232v-6.316h-1.904v6.316h-1.232V57.535h1.232v3.525h1.904zm6.045-3.525h5.295v1.228h-2.032v9.84h-1.232v-9.84h-2.031v-1.228zm10.219 0h3.696v1.228h-2.464v2.28h1.84v1.245h-1.84v5.088h2.464v1.228h-3.696V57.535zm12.951 5.853c0 .309-.047.575-.143.798a1.35 1.35 0 01-.368.526c-.16.128-.347.223-.56.287a2.178 2.178 0 01-.656.096h-1.136v3.509h-1.232V57.535h2.368c.309 0 .57.048.784.144a1.375 1.375 0 01.848.909c.063.202.095.42.095.654v4.146zm-1.247-4.146a.533.533 0 00-.112-.335c-.064-.096-.187-.144-.368-.144h-1.136v5.104h1.136a.55.55 0 00.336-.096c.096-.074.144-.202.144-.383v-4.146zm9.612 1.818v-3.525h1.232v11.069h-1.232v-6.316h-1.904v6.316h-1.232V57.535h1.232v3.525h1.904zm6.673-3.525h3.696v1.228h-2.464v2.28h1.84v1.245h-1.84v5.088h2.464v1.228h-3.696V57.535zm8.337 0h5.296v1.228h-2.032v9.84h-1.232v-9.84h-2.032v-1.228zm10.219 0h3.696v1.228h-2.464v2.28h1.84v1.245h-1.84v5.088h2.464v1.228h-3.696V57.535z" fill="#2E3451"/><path d="M106.181 5.917v4.912h-8.128v39.362h-4.928V10.829h-8.127V5.917h21.183zm18.349 0c1.237 0 2.283.191 3.136.574.896.34 1.6.83 2.112 1.467.554.596.96 1.319 1.216 2.17a8.61 8.61 0 01.384 2.615v3.126c0 1.999-.363 3.509-1.088 4.53a5.308 5.308 0 01-2.752 2.04 5.542 5.542 0 012.752 2.17c.725.978 1.088 2.467 1.088 4.466v14.29c0 1.233-.192 2.296-.576 3.19-.342.85-.832 1.552-1.472 2.105-.598.51-1.323.893-2.176 1.148a8.698 8.698 0 01-2.624.383h-9.536V5.917h9.536zm1.92 22.52c0-1.106-.32-1.957-.96-2.552-.597-.638-1.344-.957-2.24-.957h-3.328v20.35h4.608c.555 0 1.003-.127 1.344-.382.384-.298.576-.808.576-1.531V28.437zm0-15.694c0-.51-.149-.957-.448-1.34-.256-.382-.747-.574-1.472-.574h-4.608v9.187h3.328c.896 0 1.643-.298 2.24-.893.64-.638.96-1.51.96-2.616v-3.764zm25.212-7.209c1.237 0 2.283.192 3.136.574.896.34 1.6.83 2.112 1.468.555.595.96 1.318 1.216 2.169.256.808.384 1.68.384 2.615v31.387c0 .936-.128 1.83-.384 2.68a6.057 6.057 0 01-1.216 2.169c-.512.595-1.216 1.084-2.112 1.467-.853.34-1.899.51-3.136.51h-3.776c-1.237 0-2.304-.17-3.2-.51-.853-.383-1.557-.872-2.112-1.467a6.63 6.63 0 01-1.152-2.17 9.247 9.247 0 01-.384-2.679V12.36c0-.935.128-1.807.384-2.615.256-.85.64-1.574 1.152-2.17.555-.637 1.259-1.126 2.112-1.467.896-.382 1.963-.574 3.2-.574h3.776zm0 40.127c.683 0 1.173-.191 1.472-.574.299-.383.448-.83.448-1.34V12.36c0-.51-.149-.957-.448-1.34-.299-.382-.789-.574-1.472-.574h-3.776c-.725 0-1.237.192-1.536.575-.256.382-.384.829-.384 1.34v31.386c0 .51.128.957.384 1.34.299.383.811.574 1.536.574h3.776zM182.143 0v3.254h-9.344V0h9.344zm-1.024 50.19V22.058l-7.296 7.337V50.19h-4.928V5.917h4.928v17.544l7.296-7.592V5.917h4.928v44.274h-4.928zm43.711-5.677c-.299 1.616-1.003 2.977-2.112 4.083-1.067 1.063-2.624 1.595-4.672 1.595h-3.456v-4.913h3.456c.555 0 .982-.127 1.28-.382.299-.255.491-.553.576-.893l1.472-7.911h-4.416l-6.912-30.175h5.056l5.376 25.263h1.728l4.608-25.263h4.992l-6.976 38.596zm32.691-38.596v44.274h-4.928V10.829h-5.632l-1.472 33.237c-.085 2.042-.533 3.573-1.344 4.594-.768 1.02-2.176 1.53-4.224 1.53h-2.688v-4.91h2.048c.512 0 .832-.064.96-.192.171-.17.277-.51.32-1.02l1.664-38.15h15.296zm20.862-.383c1.238 0 2.283.192 3.136.574.896.34 1.6.83 2.112 1.468.555.595.96 1.318 1.216 2.169.256.808.384 1.68.384 2.615v31.387c0 .936-.128 1.83-.384 2.68a6.057 6.057 0 01-1.216 2.169c-.512.595-1.216 1.084-2.112 1.467-.853.34-1.898.51-3.136.51h-3.775c-1.238 0-2.304-.17-3.2-.51-.854-.383-1.558-.872-2.112-1.467a6.63 6.63 0 01-1.152-2.17 9.247 9.247 0 01-.384-2.679V12.36c0-.935.128-1.807.384-2.615.256-.85.64-1.574 1.152-2.17.554-.637 1.258-1.126 2.112-1.467.896-.382 1.962-.574 3.2-.574h3.775zm0 40.127c.683 0 1.174-.191 1.472-.574.299-.383.448-.83.448-1.34V12.36c0-.51-.149-.957-.448-1.34-.298-.382-.789-.574-1.472-.574h-3.775c-.726 0-1.238.192-1.536.575-.256.382-.384.829-.384 1.34v31.386c0 .51.128.957.384 1.34.298.383.81.574 1.536.574h3.775zm26.769-39.744c1.237 0 2.283.191 3.136.574.896.34 1.6.83 2.112 1.467.555.596.96 1.319 1.216 2.17a8.61 8.61 0 01.384 2.615v3.126c0 1.999-.363 3.509-1.088 4.53a5.308 5.308 0 01-2.752 2.04 5.542 5.542 0 012.752 2.17c.725.978 1.088 2.467 1.088 4.466v14.29c0 1.233-.192 2.296-.576 3.19-.341.85-.832 1.552-1.472 2.105-.597.51-1.323.893-2.176 1.148a8.698 8.698 0 01-2.624.383h-9.536V5.917h9.536zm1.92 22.52c0-1.106-.32-1.957-.96-2.552-.597-.638-1.344-.957-2.24-.957h-3.328v20.35h4.608c.555 0 1.003-.127 1.344-.382.384-.298.576-.808.576-1.531V28.437zm0-15.694c0-.51-.149-.957-.448-1.34-.256-.382-.746-.574-1.472-.574h-4.608v9.187h3.328c.896 0 1.643-.298 2.24-.893.64-.638.96-1.51.96-2.616v-3.764z" fill="#FB8C00"/><defs><clipPath id="clip0"><path d="M0 35.113C0 15.845 15.62.225 34.888.225h40.11V35c0 19.33-15.67 35-35 35h-5.11C15.62 70 0 54.38 0 35.113z" fill="#fff"/></clipPath></defs></svg>